<?xml version="1.0" encoding="utf-8"?>
<!-- Generator: Adobe Illustrator 23.0.2, SVG Export Plug-In . SVG Version: 6.00 Build 0)  -->
<svg version="1.1" id="Layer_1" xmlns="http://www.w3.org/2000/svg" xmlns:xlink="http://www.w3.org/1999/xlink" x="0px" y="0px"
	 viewBox="0 0 737 167" style="enable-background:new 0 0 737 167;" xml:space="preserve">
<style type="text/css">
	.st0{fill:#D1002C;}
</style>
<g>
	<path class="st0" d="M204.9,39.7v55.4c0,19.2,10.1,24.7,20.7,24.7c12.3,0,20.4-6.3,20.4-24.7V39.7h17.4v54.5
		c0,31.1-17.9,39.4-38.1,39.4c-20.4,0-37.9-8.7-37.9-38.8V39.7H204.9z"/>
	<path class="st0" d="M281.1,39.7h16.6V56h-16.6V39.7z M281.1,68.8h16.6v63.6h-16.6V68.8z"/>
	<path class="st0" d="M335,108.8l-8.2,23.6h-17.1l32-92.6h21.7l33.4,92.6h-18.3l-8.5-23.6H335z M366,94.4
		c-7.3-21.2-11.8-33.8-13.9-41.7h-0.1c-2.3,8.7-7.2,23.6-13.1,41.7H366z"/>
</g>
<g>
	<path class="st0" d="M423.8,39.6v23.6c0,9,4.9,11.4,9.7,11.4c5.7,0,9.6-2.7,9.6-11.4V39.6h5.9v23.3c0,12.9-7.2,16.5-15.6,16.5
		c-8.3,0-15.5-3.9-15.5-16.2V39.6H423.8z"/>
	<path class="st0" d="M457,57.3c0-2.5,0-5-0.1-7.3h5.4c0.1,0.8,0.2,3.7,0.2,4.5c1.1-2.3,3.5-5.2,8.9-5.2c5.5,0,9.6,3.4,9.6,11v18.5
		h-5.6V61.1c0-4.1-1.6-7-5.8-7c-5,0-7.2,3.7-7.2,9.4v15.4H457V57.3z"/>
	<path class="st0" d="M489.3,37.4h5.6v6.4h-5.6V37.4z M489.3,50.1h5.6v28.8h-5.6V50.1z"/>
	<path class="st0" d="M505.8,50.1c3.7,11.4,6.4,20.1,7.2,23.7h0.1c0.7-3.5,3.7-12.2,7.7-23.7h5.6l-10.5,28.8h-6l-10-28.8H505.8z"/>
	<path class="st0" d="M534.5,65.5c0,5.4,2.8,9.5,7.5,9.5c4.3,0,5.7-2.2,6.6-4.2h5.6c-1.1,3.7-4.2,8.8-12.3,8.8
		c-9.1,0-12.9-7.3-12.9-14.8c0-8.7,4.4-15.4,13.2-15.4c9.4,0,12.5,7.4,12.5,13.8c0,0.9,0,1.6-0.1,2.4H534.5z M549,61.8
		c-0.1-4.5-2.2-8.1-7-8.1c-4.8,0-6.9,3.4-7.4,8.1H549z"/>
	<path class="st0" d="M560.8,57.9c0-3.8,0-6.1-0.1-7.8h5.4c0.1,0.8,0.2,3.2,0.2,5.7c1.5-3.8,4.8-6.3,9.6-6.4v5.5
		c-5.9,0.1-9.6,2.9-9.6,10.3v13.7h-5.6V57.9z"/>
	<path class="st0" d="M584.4,70.6c0.8,3,3,4.7,6.8,4.7c4,0,5.5-1.7,5.5-4.1c0-2.5-1.3-3.7-6.5-5c-8.5-2.1-10.1-4.7-10.1-8.6
		c0-4.1,3-8.2,10.7-8.2c7.7,0,10.7,4.4,11.1,8.4h-5.4c-0.4-1.7-1.7-4.2-6-4.2c-3.8,0-4.9,1.8-4.9,3.6c0,2,1.1,3,6.3,4.2
		c8.9,2.1,10.6,5.1,10.6,9.4c0,5-3.9,8.8-11.4,8.8c-7.7,0-11.4-3.9-12.1-9H584.4z"/>
	<path class="st0" d="M608.6,37.4h5.6v6.4h-5.6V37.4z M608.6,50.1h5.6v28.8h-5.6V50.1z"/>
	<path class="st0" d="M619.1,50.1h4.9v-8.4h5.6v8.4h6.2v4.4h-6.2v16.4c0,2.7,0.7,4,3.2,4c0.6,0,1.6,0,2.4-0.2v4.1
		c-1.3,0.5-3.1,0.5-4.5,0.5c-4.7,0-6.7-2.5-6.7-7.3V54.5h-4.9V50.1z"/>
	<path class="st0" d="M644.3,65.5c0,5.4,2.8,9.5,7.5,9.5c4.3,0,5.7-2.2,6.6-4.2h5.6c-1.1,3.7-4.2,8.8-12.3,8.8
		c-9.1,0-12.9-7.3-12.9-14.8c0-8.7,4.4-15.4,13.2-15.4c9.4,0,12.5,7.4,12.5,13.8c0,0.9,0,1.6-0.1,2.4H644.3z M658.8,61.8
		c-0.1-4.5-2.2-8.1-7-8.1c-4.8,0-6.9,3.4-7.4,8.1H658.8z"/>
	<path class="st0" d="M667.3,50.1h4.9v-8.4h5.6v8.4h6.2v4.4h-6.2v16.4c0,2.7,0.7,4,3.2,4c0.6,0,1.6,0,2.4-0.2v4.1
		c-1.3,0.5-3.1,0.5-4.5,0.5c-4.7,0-6.7-2.5-6.7-7.3V54.5h-4.9V50.1z"/>
	<path class="st0" d="M692.5,65.5c0,5.4,2.8,9.5,7.5,9.5c4.3,0,5.7-2.2,6.6-4.2h5.6c-1.1,3.7-4.2,8.8-12.3,8.8
		c-9.1,0-12.9-7.3-12.9-14.8c0-8.7,4.4-15.4,13.2-15.4c9.4,0,12.5,7.4,12.5,13.8c0,0.9,0,1.6-0.1,2.4H692.5z M707,61.8
		c-0.1-4.5-2.2-8.1-7-8.1c-4.8,0-6.9,3.4-7.4,8.1H707z"/>
	<path class="st0" d="M715.5,50.1h4.9v-8.4h5.6v8.4h6.2v4.4H726v16.4c0,2.7,0.7,4,3.2,4c0.6,0,1.6,0,2.4-0.2v4.1
		c-1.3,0.5-3.1,0.5-4.5,0.5c-4.7,0-6.7-2.5-6.7-7.3V54.5h-4.9V50.1z"/>
	<path class="st0" d="M420.3,90.8h5.6v6.4h-5.6V90.8z M420.3,103.5h5.6v28.8h-5.6V103.5z"/>
	<path class="st0" d="M453,121.1l-4,11.3h-5.8L457.1,93h7.2l14.5,39.3h-6.2l-4.1-11.3H453z M467,116.1c-3.6-9.9-5.6-15.4-6.4-18.5
		h-0.1c-1,3.4-3.2,10-6.1,18.5H467z"/>
	<path class="st0" d="M508.5,129.6c0,9.2-3.7,14.6-13.4,14.6c-9.1,0-11.7-5.1-12.1-8.9h5.7c0.8,2.9,3.1,4.5,6.7,4.5
		c6.3,0,7.8-4,7.8-10.4v-2.1c-1.5,3.1-4.1,4.9-8.8,4.9c-7.2,0-11.9-5.9-11.9-14.2c0-9.3,5.5-15.1,12.5-15.1c5.4,0,7.7,2.5,8.3,4.3
		c0.1-1.2,0.2-3.1,0.2-3.7h5.3c0,1.8-0.1,5.5-0.1,8.3V129.6z M488.1,117.8c0,5.9,3,9.8,7.5,9.8c5.9,0,7.7-4,7.7-10.1
		c0-6.2-1.5-9.9-7.5-9.9C490.8,107.5,488.1,111.6,488.1,117.8z"/>
	<path class="st0" d="M541.3,90.8v33.4c0,2.7,0,5.3,0.1,8.1H536c-0.1-0.8-0.2-2.9-0.3-3.9c-1.4,2.9-4.3,4.6-8.9,4.6
		c-7.4,0-12-6-12-14.8c0-8.9,4.9-15.4,12.9-15.4c4.9,0,7.2,1.9,7.9,3.5V90.8H541.3z M520.6,118.1c0,6.7,3.1,10.3,7.5,10.3
		c6.5,0,7.8-4.9,7.8-10.8c0-6.1-1.2-10.1-7.5-10.1C523.6,107.5,520.6,111.4,520.6,118.1z"/>
	<path class="st0" d="M553.1,119c0,5.4,2.8,9.5,7.5,9.5c4.3,0,5.7-2.2,6.6-4.2h5.6c-1.1,3.7-4.2,8.8-12.3,8.8
		c-9.1,0-12.9-7.3-12.9-14.8c0-8.7,4.4-15.4,13.2-15.4c9.4,0,12.5,7.4,12.5,13.8c0,0.9,0,1.6-0.1,2.4H553.1z M567.7,115.2
		c-0.1-4.5-2.2-8.1-7-8.1c-4.8,0-6.9,3.4-7.4,8.1H567.7z"/>
	<path class="st0" d="M579.5,111.4c0-3.8,0-6.1-0.1-7.8h5.5c0.1,0.8,0.2,3.2,0.2,5.7c1.5-3.8,4.8-6.3,9.6-6.4v5.5
		c-5.9,0.1-9.6,2.9-9.6,10.3v13.7h-5.6V111.4z"/>
</g>
<g>
	<path class="st0" d="M62.4,59.3h12.6c-2.4-13.1,0.7-18.5,11.7-18.5h48.1V27.5H86.3C67.4,27.5,58,38.6,62.4,59.3z"/>
	<rect x="120.7" y="78.6" class="st0" width="14.1" height="88.1"/>
	<rect x="91.9" y="78.6" class="st0" width="14.1" height="88.1"/>
	<rect x="91.1" y="52.5" class="st0" width="43.7" height="13.4"/>
	<path class="st0" d="M58.9,153.8c-14-0.5-23.4-8.6-23.1-20.4C36,122.8,43.3,114,53.9,114c6.4,0,12.4,1.4,16.7,6.5v-14
		c-4.6-3.7-11-5.3-16.5-5.3c-16.5,0-31,12.8-31,31.1c0,8.2,3.1,14.7,7.3,19.4c-10.8-5.4-18.2-17-18.2-31.5
		c0-18.6,15.1-32.8,33.7-32.8c3.2,0,6.1,0.3,9.3,1.1v-14c-2.5-0.6-6.1-0.8-8.8-0.8C20.9,73.8,0,94.6,0,120.2
		c0,28.9,21.3,46.5,45.5,46.5l31.6,0v-12.8C77.1,153.9,66.4,153.9,58.9,153.8L58.9,153.8z"/>
	<path class="st0" d="M1,0.7l0,79.8c3.6-3.9,7.1-7,12-9.8l0-57.9h121.8V0.7H1z"/>
</g>
</svg>
